<svg viewBox="0 0 84 90" fill="none" xmlns="http://www.w3.org/2000/svg">
<path d="M75.9843 35.3384L53.3175 58.0053C52.9193 58.3978 52.3822 58.6169 51.8232 58.6148C51.2642 58.6128 50.7286 58.3899 50.3333 57.9946C49.938 57.5993 49.7151 57.0637 49.713 56.5047C49.711 55.9457 49.9301 55.4085 50.3225 55.0104L65.8943 39.4386C66.3042 39.0332 66.6299 38.5508 66.8527 38.0191C67.0755 37.4874 67.1911 36.9168 67.1926 36.3403C67.1942 35.7638 67.0818 35.1927 66.862 34.6597C66.6421 34.1268 66.319 33.6426 65.9114 33.2349C65.5037 32.8273 65.0195 32.5042 64.4865 32.2843C63.9536 32.0644 63.3825 31.9521 62.806 31.9536C62.2294 31.9552 61.6589 32.0708 61.1272 32.2936C60.5955 32.5164 60.1131 32.8421 59.7077 33.252L51.7783 41.1815C51.3802 41.5739 50.8431 41.793 50.284 41.791C49.725 41.789 49.1895 41.566 48.7942 41.1707C48.3989 40.7754 48.1759 40.2399 48.1739 39.6808C48.1719 39.1218 48.391 38.5847 48.7834 38.1865L78.6231 8.34679C79.4435 7.52628 79.9044 6.41347 79.9043 5.25317C79.9042 4.09287 79.4432 2.98013 78.6227 2.15973C78.2164 1.75351 77.7341 1.43129 77.2033 1.21147C76.6725 0.99165 76.1036 0.87853 75.5291 0.878571C74.3688 0.878653 73.256 1.33966 72.4356 2.16017L53.552 21.0449C53.3553 21.2415 53.1219 21.3975 52.865 21.504C52.608 21.6104 52.3327 21.6652 52.0546 21.6652C51.7765 21.6652 51.5011 21.6104 51.2441 21.504C50.9872 21.3976 50.7538 21.2416 50.5571 21.045C50.3605 20.8483 50.2045 20.6149 50.098 20.3579C49.9916 20.101 49.9368 19.8256 49.9368 19.5475C49.9368 19.2694 49.9916 18.9941 50.098 18.7371C50.2044 18.4802 50.3604 18.2467 50.557 18.0501L56.9217 11.6856C57.7421 10.8651 58.2029 9.75226 58.2029 8.59196C58.2028 7.43166 57.7418 6.31892 56.9213 5.49852C56.1008 4.67813 54.9879 4.21728 53.8276 4.21736C52.6673 4.21744 51.5546 4.67845 50.7342 5.49896L40.0994 16.1337L40.0935 16.1397L31.1719 25.0617L31.1694 25.0643L7.62825 48.6056C4.29512 51.9135 2.02035 56.1373 1.09288 60.7408C0.165406 65.3442 0.627088 70.1194 2.41928 74.4598C4.21147 78.8003 7.2533 82.5102 11.1584 85.1182C15.0635 87.7262 19.6556 89.1147 24.3516 89.1074C27.5288 89.1105 30.6754 88.4867 33.6112 87.2717C36.5469 86.0566 39.2141 84.2743 41.4598 82.0267L82.0658 41.4199C82.4652 41.0205 82.7819 40.5464 82.9981 40.0246C83.2142 39.5028 83.3254 38.9436 83.3254 38.3788C83.3254 37.8141 83.2142 37.2548 82.9981 36.7331C82.7819 36.2113 82.4652 35.7372 82.0658 35.3378C81.6665 34.9385 81.1924 34.6217 80.6706 34.4056C80.1488 34.1894 79.5896 34.0782 79.0248 34.0782C78.46 34.0782 77.9008 34.1894 77.379 34.4056C76.8572 34.6217 76.3831 34.9385 75.9838 35.3378L75.9843 35.3384ZM80.5743 39.9282L39.9676 80.535C31.4883 89.0156 17.7176 89.1747 9.27163 80.8905C7.23008 78.8841 5.60581 76.4935 4.49241 73.8565C3.37902 71.2194 2.79853 68.3881 2.78439 65.5257C2.77026 62.6633 3.32276 59.8264 4.41006 57.1785C5.49736 54.5306 7.09794 52.1241 9.11958 50.0976L37.545 21.6719L52.2264 6.99047C52.6527 6.5729 53.2266 6.34042 53.8233 6.34354C54.4201 6.34665 54.9915 6.5851 55.4134 7.00708C55.8353 7.42907 56.0737 8.0005 56.0768 8.59724C56.0798 9.19397 55.8473 9.76781 55.4297 10.1941L49.0664 16.5586C48.6638 16.9488 48.3429 17.4151 48.1223 17.9305C47.9017 18.4459 47.7858 19 47.7814 19.5606C47.777 20.1212 47.8842 20.6771 48.0966 21.1959C48.3091 21.7147 48.6227 22.186 49.019 22.5825C49.4154 22.979 49.8867 23.2926 50.4054 23.5052C50.9242 23.7178 51.4801 23.825 52.0407 23.8207C52.6013 23.8165 53.1554 23.7007 53.6708 23.4802C54.1863 23.2597 54.6527 22.9389 55.043 22.5364L73.928 3.65168C74.1384 3.44132 74.3881 3.27447 74.663 3.16063C74.9378 3.04679 75.2324 2.9882 75.5299 2.98821C75.8274 2.98822 76.122 3.04682 76.3968 3.16068C76.6716 3.27453 76.9214 3.4414 77.1317 3.65176C77.3421 3.86213 77.5089 4.11186 77.6228 4.38671C77.7366 4.66156 77.7952 4.95614 77.7952 5.25363C77.7952 5.55112 77.7366 5.8457 77.6227 6.12054C77.5089 6.39539 77.342 6.64511 77.1316 6.85547L47.291 36.695C46.4983 37.4878 46.0529 38.5629 46.0529 39.684C46.0529 40.8051 46.4983 41.8803 47.291 42.673C48.0837 43.4657 49.1589 43.9111 50.28 43.9111C51.4011 43.9111 52.4762 43.4657 53.269 42.673L61.1985 34.7435C61.4088 34.5332 61.6585 34.3663 61.9334 34.2525C62.2082 34.1386 62.5028 34.08 62.8003 34.08C63.0978 34.08 63.3923 34.1386 63.6672 34.2525C63.942 34.3663 64.1917 34.5332 64.4021 34.7435C64.6124 34.9539 64.7793 35.2036 64.8931 35.4784C65.007 35.7533 65.0656 36.0478 65.0656 36.3453C65.0656 36.6428 65.007 36.9374 64.8931 37.2122C64.7793 37.487 64.6124 37.7368 64.4021 37.9471L48.8303 53.5189C48.0407 54.3122 47.5979 55.3864 47.5992 56.5057C47.6005 57.6251 48.0457 58.6982 48.8372 59.4898C49.6287 60.2813 50.7019 60.7265 51.8212 60.7279C52.9406 60.7292 54.0147 60.2865 54.8081 59.4968L77.4749 36.8299C77.6784 36.6264 77.9199 36.465 78.1857 36.3549C78.4515 36.2448 78.7364 36.1881 79.0241 36.188C79.3119 36.188 79.5968 36.2447 79.8626 36.3548C80.1284 36.4649 80.37 36.6262 80.5734 36.8297C80.7769 37.0331 80.9383 37.2746 81.0484 37.5405C81.1585 37.8063 81.2152 38.0912 81.2152 38.3789C81.2152 38.6666 81.1586 38.9515 81.0485 39.2173C80.9384 39.4832 80.777 39.7247 80.5736 39.9282H80.5743Z" fill="#F5F7FA"/>
<path d="M37.5104 28.5574C37.6489 28.5575 37.7861 28.5303 37.914 28.4772C38.042 28.4241 38.1581 28.3462 38.2559 28.248L39.9286 26.5755C40.1264 26.3777 40.2376 26.1094 40.2376 25.8297C40.2376 25.55 40.1265 25.2817 39.9287 25.0839C39.7309 24.8861 39.4626 24.7749 39.1829 24.7749C38.9032 24.7749 38.6349 24.886 38.4371 25.0838L36.7645 26.7565C36.6171 26.904 36.5167 27.0919 36.476 27.2965C36.4353 27.5011 36.4562 27.7131 36.536 27.9058C36.6158 28.0985 36.751 28.2632 36.9244 28.3791C37.0978 28.495 37.3016 28.5568 37.5102 28.5569L37.5104 28.5574Z" fill="#F5F7FA"/>
<path d="M23.9144 42.1534C24.0529 42.1536 24.1901 42.1264 24.318 42.0734C24.446 42.0204 24.5622 41.9426 24.66 41.8445L34.6281 31.8765C34.7273 31.7789 34.8063 31.6626 34.8604 31.5343C34.9144 31.406 34.9426 31.2682 34.9432 31.129C34.9437 30.9898 34.9168 30.8518 34.8638 30.7231C34.8107 30.5944 34.7328 30.4774 34.6343 30.3789C34.5359 30.2805 34.419 30.2025 34.2902 30.1494C34.1615 30.0964 34.0235 30.0694 33.8843 30.0699C33.7451 30.0705 33.6073 30.0986 33.479 30.1526C33.3507 30.2067 33.2344 30.2856 33.1367 30.3848L23.1687 40.3529C23.0212 40.5004 22.9207 40.6883 22.88 40.8929C22.8393 41.0975 22.8602 41.3095 22.94 41.5023C23.0198 41.695 23.155 41.8597 23.3284 41.9756C23.5019 42.0915 23.7058 42.1534 23.9144 42.1534V42.1534Z" fill="#F5F7FA"/>
<path d="M44.2354 43.3049C44.0376 43.1072 43.7694 42.9961 43.4897 42.9961C43.21 42.9961 42.9417 43.1072 42.7439 43.3049L40.0937 45.9552C39.9944 46.0528 39.9155 46.1692 39.8614 46.2975C39.8074 46.4258 39.7792 46.5635 39.7787 46.7027C39.7781 46.842 39.8051 46.9799 39.8581 47.1086C39.9111 47.2374 39.9891 47.3544 40.0876 47.4528C40.186 47.5513 40.303 47.6292 40.4317 47.6823C40.5605 47.7353 40.6984 47.7623 40.8376 47.7617C40.9769 47.7611 41.1146 47.733 41.2429 47.6789C41.3712 47.6249 41.4875 47.546 41.5852 47.4467L44.2354 44.7965C44.4332 44.5987 44.5443 44.3304 44.5443 44.0507C44.5443 43.771 44.4332 43.5027 44.2354 43.3049V43.3049Z" fill="#F5F7FA"/>
<path d="M31.6465 44.2997C31.8443 44.4974 32.1125 44.6085 32.3922 44.6085C32.6718 44.6085 32.94 44.4974 33.1378 44.2997L44.9577 32.4796C45.1511 32.2809 45.2584 32.0141 45.2566 31.7369C45.2547 31.4597 45.1438 31.1943 44.9477 30.9983C44.7517 30.8022 44.4864 30.6912 44.2091 30.6893C43.9319 30.6874 43.6651 30.7948 43.4664 30.9881L31.6465 42.808C31.5485 42.9059 31.4708 43.0222 31.4178 43.1502C31.3648 43.2782 31.3375 43.4153 31.3375 43.5538C31.3375 43.6924 31.3648 43.8295 31.4178 43.9575C31.4708 44.0855 31.5485 44.2017 31.6465 44.2997V44.2997Z" fill="#F5F7FA"/>
<path d="M48.873 63.6789L47.3163 65.2354C47.1185 65.4332 47.0074 65.7015 47.0074 65.9812C47.0073 66.2609 47.1184 66.5292 47.3162 66.727C47.514 66.9248 47.7823 67.0359 48.062 67.036C48.3417 67.036 48.61 66.9249 48.8078 66.7271L50.3644 65.1704C50.4645 65.0729 50.5443 64.9566 50.599 64.8281C50.6538 64.6995 50.6825 64.5614 50.6835 64.4217C50.6844 64.282 50.6576 64.1435 50.6046 64.0142C50.5516 63.885 50.4734 63.7676 50.3746 63.6688C50.2759 63.57 50.1584 63.4918 50.0292 63.4387C49.8999 63.3857 49.7614 63.3589 49.6217 63.3598C49.482 63.3608 49.3439 63.3895 49.2154 63.4442C49.0868 63.499 48.9705 63.5787 48.873 63.6789V63.6789Z" fill="#F5F7FA"/>
<circle cx="24.0703" cy="66.0938" r="17.2812" stroke="#F5F7FA" stroke-width="2"/>
<rect x="25.125" y="66.9727" width="2.10938" height="11.6016" rx="1.05469" transform="rotate(180 25.125 66.9727)" fill="#F5F7FA"/>
<rect x="24.3336" y="64.6875" width="2.10938" height="8.43751" rx="1.05469" transform="rotate(60 24.3336 64.6875)" fill="#F5F7FA"/>
<rect x="23.0156" y="79.6289" width="2.10938" height="3.51562" rx="1.05469" fill="#F5F7FA"/>
<rect x="37.6934" y="67.0605" width="2.10937" height="3.51562" rx="1.05469" transform="rotate(-90 37.6934 67.0605)" fill="#F5F7FA"/>
<rect x="23.0156" y="48.8672" width="2.10938" height="3.51562" rx="1.05469" fill="#F5F7FA"/>
<rect x="6.93164" y="67.0605" width="2.10937" height="3.51562" rx="1.05469" transform="rotate(-90 6.93164 67.0605)" fill="#F5F7FA"/>
</svg>
